<svg width="85" height="14" viewBox="0 0 85 14" fill="none" xmlns="http://www.w3.org/2000/svg">
<g clip-path="url(#clip0)">
<path d="M15.3956 1.07422L12.7148 4.7139H27.3264C28.0666 4.7139 28.0562 4.99342 27.695 5.48296C27.3338 5.97249 26.7151 6.84211 26.3406 7.34495C26.1511 7.6008 25.8092 8.06667 26.9445 8.06667H32.9203L34.6966 5.66191C35.795 4.17261 34.7914 1.07718 30.8657 1.07718L15.3956 1.07422Z" fill="#D40512"/>
<path d="M11.6289 12.9306L17.0141 5.62012H23.6974C24.4376 5.62012 24.4257 5.89964 24.0645 6.38917C23.7034 6.8787 23.0742 7.73797 22.7012 8.24229C22.5117 8.49815 22.1683 8.96402 23.3037 8.96402H32.2563C31.5161 9.98301 29.0974 12.9306 24.7603 12.9306H11.6289Z" fill="#D40512"/>
<path d="M42.4733 8.96387L39.5528 12.9304H31.8555C31.8555 12.9304 34.7745 8.96387 34.7775 8.96387H42.4733Z" fill="#D40512"/>
<path d="M54.2758 8.06667H35.4336L40.5864 1.07422H48.2867L45.3335 5.08364H48.7707L51.7268 1.07422H59.4256L54.2758 8.06667Z" fill="#D40512"/>
<path d="M53.6115 8.96387L50.6895 12.9304H42.9922C42.9922 12.9304 45.9112 8.96387 45.9142 8.96387H53.6115Z" fill="#D40512"/>
<path d="M0.636719 10.5283H11.9858L11.3656 11.3713H0.636719V10.5283Z" fill="#D40512"/>
<path d="M0.636719 8.96387H13.139L12.5173 9.80537H0.636719V8.96387Z" fill="#D40512"/>
<path d="M0.636719 12.0938H10.8327L10.2169 12.9309H0.636719V12.0938Z" fill="#D40512"/>
<path d="M84.5562 11.3713H73.25L73.8717 10.5283H84.5562V11.3713Z" fill="#D40512"/>
<path d="M84.5564 12.9308L72.1016 12.9323L72.7188 12.0938H84.5564V12.9308Z" fill="#D40512"/>
<path d="M75.025 8.96387H84.5593V9.80684H74.4062L75.025 8.96387Z" fill="#D40512"/>
<path d="M70.0893 1.07422L64.9365 8.06667H56.7773C56.7773 8.06667 61.9301 1.07422 61.9331 1.07422H70.0893Z" fill="#D40512"/>
<path d="M56.1148 8.96387C56.1148 8.96387 55.5523 9.73291 55.2784 10.1026C54.3118 11.4085 55.1674 12.9304 58.3233 12.9304H70.6908L73.6129 8.96387H56.1148Z" fill="#D40512"/>
</g>
<defs>
<clipPath id="clip0">
<rect x="0.441406" y="0.888672" width="84.4706" height="12.2013" fill="white"/>
</clipPath>
</defs>
</svg>
