<svg fill="none" height="24" viewBox="0 0 24 24" width="24" xmlns="http://www.w3.org/2000/svg"><path d="m13.2054 17.9146s.4288-.0814.6864-.2443c.1712-.2435.1712-.5676.1712-.5676s0-1.7874.8584-2.1124c.8584-.2443 1.9737 1.7867 3.1745 2.518.944.5684 1.6312.4878 1.6312.4878l3.1744-.0815s1.7161-.0814.8585-1.3811c-.0856-.0806-.4297-.8933-2.4033-2.5994-1.9736-1.7866-1.716-1.4617.6872-4.54806 1.4584-1.86892 2.0593-3.00492 1.8873-3.49271-.1712-.48697-1.2865-.32492-1.2865-.32492h-3.6048s-.2576 0-.4288.08143c-.1712.08062-.3432.40554-.3432.40554s-.6008 1.46174-1.3728 2.68081c-1.6305 2.59941-2.2313 2.76141-2.4889 2.59941-.6008-.4064-.4288-1.5432-.4288-2.27448 0-2.51795.4288-3.57333-.772-3.81763-.3432-.16288-.6872-.24349-1.6304-.24349-1.2872 0-2.40324 0-3.00404.3241-.42881.16369-.68641.64984-.51441.64984.2568 0 .77201.1637 1.02961.4878.34321.48779.34321 1.54317.34321 1.54317s.1712 2.92429-.51521 3.33069c-.51441.2435-1.11522-.2443-2.57363-2.59941-.77281-1.21907-1.28722-2.51794-1.28722-2.51794s-.0864-.32492-.2576-.40636c-.25761-.16205-.60081-.24348-.60081-.24348h-3.432046s-.515206 0-.6864086.24348c-.1720022.16205 0 .56923 0 .56923s2.6592346 5.92918 5.7488746 8.93418c2.74564 2.7614 5.92088 2.5993 5.92088 2.5993z" fill="#000" fill-opacity=".7"/></svg>